<svg width="127" height="34" viewBox="0 0 127 34" fill="none" xmlns="http://www.w3.org/2000/svg">
<path d="M101.362 32.7089C101.328 32.7089 101.312 32.6745 101.312 32.6058C101.312 32.5372 101.328 32.4857 101.362 32.4513C110.128 10.8171 117.685 0 124.033 0C125.578 0 126.351 0.669631 126.351 2.00889C126.351 3.41683 125.729 4.9793 124.487 6.6963C122.136 10.0616 118.844 12.7401 114.612 14.7319C113.437 15.2813 112.496 15.6419 111.791 15.8136C111.724 15.8479 111.606 15.8651 111.438 15.8651C110.33 17.8225 109.272 19.7627 108.264 21.6857C107.256 23.5744 106.316 25.4631 105.443 27.3518C110.246 19.0415 114.343 14.8864 117.736 14.8864C118.978 14.8864 119.6 15.4873 119.6 16.6893C119.6 18.6466 118.156 20.2263 115.267 21.4282C114.965 21.5655 114.545 21.7201 114.008 21.8918C113.47 22.0635 112.798 22.2523 111.992 22.4584H112.093C112.463 22.4584 112.782 22.7674 113.05 23.3856C113.117 23.6259 113.185 23.8835 113.252 24.1582C113.319 24.3986 113.353 24.6561 113.353 24.9309C113.353 25.5833 113.201 26.5277 112.899 27.7639C112.765 28.4164 112.664 28.983 112.597 29.4637C112.53 29.9102 112.496 30.2879 112.496 30.597C112.496 31.5585 112.899 32.0392 113.705 32.0392C114.982 32.0392 116.392 30.9404 117.937 28.7426C118.508 28.0215 119.012 27.266 119.449 26.4762C119.919 25.6863 120.406 24.8107 120.91 23.8491C120.977 23.7118 121.094 23.6259 121.262 23.5916C121.43 23.5573 121.43 23.6946 121.262 24.0037C120.792 24.9652 120.288 25.8924 119.751 26.7852C119.247 27.6781 118.693 28.5194 118.088 29.3092C116.443 31.4726 114.864 32.5543 113.353 32.5543C111.136 32.5543 110.027 31.6615 110.027 29.8758C110.027 29.1547 110.229 28.1073 110.632 26.7337C111.035 25.3258 111.237 24.3127 111.237 23.6946C111.237 22.8705 110.783 22.4584 109.876 22.4584C109.742 22.4584 109.675 22.4069 109.675 22.3038C109.675 22.1665 109.776 22.0978 109.977 22.0978C110.582 22.0635 111.203 21.9604 111.841 21.7887C112.513 21.5827 113.185 21.2908 113.856 20.9131C115.133 20.2606 116.191 19.4193 117.03 18.3891C117.803 17.3932 118.189 16.5691 118.189 15.9166C118.189 15.5045 117.954 15.2985 117.484 15.2985C116.375 15.2985 114.847 16.2428 112.899 18.1315C112.194 18.8183 111.522 19.5223 110.884 20.2434C110.279 20.9302 109.692 21.6686 109.121 22.4584C107.878 24.141 106.467 26.459 104.889 29.4122C104.687 29.7556 104.452 30.1849 104.183 30.7C103.948 31.1807 103.663 31.7302 103.327 32.3483C103.327 32.3483 103.31 32.3483 103.276 32.3483C103.276 32.3826 103.26 32.3998 103.226 32.3998C102.991 32.1938 102.773 32.0907 102.571 32.0907C102.235 32.0907 101.966 32.1938 101.765 32.3998C101.53 32.6058 101.395 32.7089 101.362 32.7089ZM111.74 15.4015H111.841C114.058 14.8177 116.476 13.3926 119.096 11.1262C123.563 7.31443 125.797 4.20665 125.797 1.80285C125.797 0.978691 125.377 0.566609 124.537 0.566609C122.623 0.566609 120.204 2.5755 117.282 6.59328C116.644 7.45178 115.872 8.61934 114.965 10.096C114.058 11.5382 112.983 13.3068 111.74 15.4015Z" fill="#147334"/>
<path d="M97.7384 32.4514C95.9919 32.4514 95.1186 31.2151 95.1186 28.7427C95.1186 27.7811 95.2698 26.6822 95.5721 25.446C93.2209 30.0819 90.8866 32.3999 88.5691 32.3999C87.4607 32.3999 86.621 31.8333 86.0501 30.7C85.5798 29.8415 85.3447 28.7598 85.3447 27.4549C85.3447 26.3904 85.4959 25.2743 85.7982 24.1067C86.3691 22.0807 87.5783 20.1748 89.4256 18.3891C91.4744 16.4661 93.4225 15.5046 95.2698 15.5046C96.9491 15.5046 97.7888 16.5348 97.7888 18.5952C97.7888 19.488 97.6041 20.5354 97.2346 21.7373L100.308 15.5561H100.459C100.56 15.7278 100.778 15.8136 101.114 15.8136C101.786 15.8136 102.642 15.4016 103.683 14.5774L103.784 14.6804L99.5018 23.2311C97.7888 26.6307 96.9323 29.2062 96.9323 30.9576C96.9323 31.6444 97.2346 31.9878 97.8392 31.9878C98.2423 31.9878 98.7293 31.8333 99.3003 31.5242C99.8712 31.2151 100.476 30.7 101.114 29.9789C101.92 29.0174 102.609 28.1074 103.18 27.2489C103.784 26.356 104.473 25.1541 105.245 23.6432C105.346 23.4715 105.447 23.3856 105.547 23.3856C105.749 23.3856 105.749 23.5573 105.547 23.9007C104.943 25.0683 104.288 26.2358 103.583 27.4034C102.911 28.5366 102.088 29.6011 101.114 30.597C99.9048 31.8333 98.7796 32.4514 97.7384 32.4514ZM88.7706 32.0393C90.6515 32.0393 93.0698 29.3264 96.0255 23.9007C96.9659 22.1837 97.4361 20.4495 97.4361 18.6982C97.4361 16.8438 96.8484 15.9167 95.6728 15.9167C94.3965 15.9167 92.9523 16.9984 91.3401 19.1618C90.7019 20.0546 90.1477 20.9303 89.6775 21.7888C89.2408 22.6473 88.8882 23.4715 88.6195 24.2613C87.9142 26.3217 87.5615 28.176 87.5615 29.8244C87.5615 31.301 87.9645 32.0393 88.7706 32.0393Z" fill="#D95C3E"/>
<path d="M57.8937 33.5329L57.793 33.4298C58.767 31.7128 59.7074 29.9443 60.6143 28.1243C61.5212 26.3043 62.4448 24.4328 63.3853 22.5097C63.7547 21.7542 64.1913 20.8099 64.6952 19.6767C65.2326 18.5434 65.8371 17.2214 66.5089 15.7104H66.6096C66.8447 15.8821 67.1134 15.9679 67.4157 15.9679C68.1211 15.9679 68.8936 15.6417 69.7333 14.9892L69.834 14.8862L69.7836 14.9892H69.7333C69.4981 15.47 69.0615 16.3113 68.4233 17.5132C67.8188 18.6808 67.0295 20.2261 66.0554 22.1491C68.8096 17.6849 71.1103 15.4528 72.9576 15.4528C74.2004 15.4528 74.8217 16.0538 74.8217 17.2557C74.8217 18.2516 74.4019 19.711 73.5622 21.634C74.2675 20.6382 74.8553 19.8312 75.3255 19.2131C75.7958 18.5606 76.1484 18.1142 76.3835 17.8738C77.7942 16.3285 79.0537 15.5559 80.1621 15.5559C81.6064 15.5559 82.3285 16.277 82.3285 17.7193C82.3285 18.7838 82.0598 19.8655 81.5224 20.9644C81.0186 22.029 80.414 23.1107 79.7087 24.2095C79.0033 25.2741 78.3652 26.3386 77.7942 27.4032C77.5255 27.9526 77.2736 28.5364 77.0385 29.1545C76.837 29.7383 76.7362 30.2706 76.7362 30.7513C76.7362 31.1977 76.8706 31.5755 77.1393 31.8845C77.408 32.1593 77.8614 32.2966 78.4995 32.2966C78.9698 32.2966 79.4232 32.2108 79.8598 32.0391C80.2965 31.833 80.6827 31.6098 81.0186 31.3694C81.9255 30.6483 82.698 29.807 83.3361 28.8454C83.9743 27.8839 84.5285 26.9224 84.9987 25.9609C85.4689 24.9994 85.8887 24.1924 86.2582 23.5399C86.359 23.3682 86.4597 23.3167 86.5605 23.3854C86.6613 23.4197 86.6781 23.5227 86.6109 23.6944C85.9391 25.1367 85.2002 26.6133 84.3941 28.1243C83.588 29.6353 82.5636 30.8372 81.3209 31.73C80.8842 32.0391 80.3972 32.2966 79.8598 32.5027C79.356 32.7087 78.8186 32.8117 78.2476 32.8117C77.0721 32.8117 76.2156 32.5542 75.6782 32.0391C75.1744 31.4896 74.9225 30.7857 74.9225 29.9272C74.9225 29.309 75.0568 28.5536 75.3255 27.6607C75.5271 27.0426 75.779 26.3901 76.0813 25.7033C76.4171 24.9822 76.837 24.2095 77.3408 23.3854C79.1209 20.3635 80.011 18.4061 80.011 17.5132C80.011 16.9295 79.7591 16.6376 79.2553 16.6376C77.8446 16.6376 75.7958 18.8868 73.1088 23.3854C72.2691 24.759 71.463 26.2013 70.6905 27.7122C69.918 29.1888 69.1455 30.7341 68.373 32.3481H68.2722C68.0371 32.2794 67.8188 32.2279 67.6173 32.1936C67.4157 32.1593 67.231 32.1421 67.0631 32.1421C66.0554 32.1421 65.4509 32.5027 65.2494 33.2238L65.0982 33.1208C66.3745 30.8543 67.3821 29.0515 68.1211 27.7122C68.86 26.373 69.347 25.4973 69.5821 25.0852C71.7317 20.8957 72.8065 18.2172 72.8065 17.0497C72.8065 16.5345 72.6218 16.277 72.2523 16.277C70.8752 16.277 68.8096 18.5778 66.0554 23.1793C64.2417 26.1669 62.6127 29.2404 61.1685 32.3996L61.0677 32.4512C60.6311 32.2794 60.2448 32.1936 59.909 32.1936C59.338 32.1936 58.8678 32.4168 58.4983 32.8632C58.1624 33.3096 57.9609 33.5329 57.8937 33.5329Z" fill="#147334"/>
<path d="M52.4713 32.9149C49.079 32.9149 47.3828 31.2666 47.3828 27.9699C47.3828 27.0427 47.534 26.0469 47.8362 24.9823V25.0338C48.0042 24.4157 48.3233 23.8148 48.7935 23.231C49.3645 22.5098 49.8851 22.1493 50.3553 22.1493C50.3553 22.1493 50.4057 22.1493 50.5064 22.1493C50.6072 22.1493 50.7751 22.1836 51.0102 22.2523L51.5644 21.3766C52.0347 20.6555 52.4545 19.9343 52.824 19.2132C53.227 18.4577 53.6468 17.7194 54.0835 16.9983C55.3262 14.8005 56.2667 13.6158 56.9048 13.4441C57.1063 13.3754 57.2575 13.3411 57.3582 13.3411C57.8621 13.3411 58.114 13.5299 58.114 13.9077C58.114 14.3541 57.7445 14.6288 57.0056 14.7318C56.3338 14.8349 55.914 14.9207 55.7461 14.9894C55.4774 15.1954 55.343 15.6418 55.343 16.3286C55.343 17.0498 55.7964 18.2689 56.7033 19.9859C57.6102 21.6685 58.0636 23.1623 58.0636 24.4672C58.0636 24.8106 58.03 25.1369 57.9628 25.4459C57.9292 25.755 57.8788 26.0812 57.8117 26.4246C56.9048 30.305 54.5033 32.2452 50.6072 32.2452C51.3797 32.4169 52.085 32.5028 52.7232 32.5028C53.8987 32.5028 55.0407 32.2968 56.1491 31.8847C57.2575 31.4383 58.2819 30.8373 59.2223 30.0818C60.1964 29.292 61.0864 28.3477 61.8925 27.2488C62.7322 26.1156 63.4543 24.9137 64.0589 23.6431C64.1597 23.437 64.2604 23.334 64.3612 23.334C64.5627 23.334 64.5795 23.5057 64.4116 23.8491C63.8742 24.8793 63.3032 25.858 62.6986 26.7852C62.1276 27.678 61.5063 28.485 60.8345 29.2062C60.0284 30.0303 58.9368 30.8545 57.5598 31.6786C56.1827 32.5028 54.4865 32.9149 52.4713 32.9149ZM50.2545 31.8332C51.9675 31.8332 53.3781 30.5111 54.4865 27.8669C55.3934 25.8065 55.8468 23.7289 55.8468 21.6342C55.8468 21.3595 55.7964 20.9989 55.6957 20.5525C55.6285 20.0717 55.5109 19.5051 55.343 18.8526C55.2087 18.2345 55.1079 17.7022 55.0407 17.2558C54.9735 16.7751 54.9568 16.363 54.9903 16.0196C54.3522 17.3245 53.714 18.5092 53.0759 19.5738C52.4377 20.6383 51.8331 21.5998 51.2621 22.4583C51.4301 22.7331 51.5141 23.0078 51.5141 23.2825C51.5141 23.7633 51.3293 24.2955 50.9599 24.8793C50.7248 25.2227 50.3217 25.5489 49.7507 25.858C49.1797 26.1671 48.7767 26.459 48.5416 26.7337C48.1721 27.2831 47.9874 28.0043 47.9874 28.8971C47.9874 30.8545 48.7431 31.8332 50.2545 31.8332Z" fill="#147334"/>
<path d="M47.565 12.7229C46.4902 12.7229 45.9528 12.1906 45.9528 11.1261C45.9528 9.95854 46.4734 9.37476 47.5146 9.37476C48.5894 9.37476 49.1268 9.90703 49.1268 10.9716C49.1268 12.1391 48.6062 12.7229 47.565 12.7229ZM41.6201 32.8118C39.4033 32.8118 38.2949 31.5584 38.2949 29.0516C38.2949 27.2316 38.8155 25.3085 39.8567 23.2825L43.6353 15.7105H43.7864C43.8872 15.8478 44.0887 15.9165 44.391 15.9165C45.0292 15.9165 45.8689 15.5216 46.9101 14.7318L47.0108 14.8348L42.7284 23.334C40.9483 26.8367 40.0583 29.2748 40.0583 30.6484C40.0583 31.2665 40.2262 31.6958 40.5621 31.9362C40.8979 32.1765 41.2842 32.2967 41.7208 32.2967C42.191 32.2967 42.6445 32.1937 43.0811 31.9877C43.5513 31.7816 43.9544 31.5584 44.2903 31.318C45.1971 30.5969 45.9528 29.7727 46.5574 28.8455C47.1956 27.884 47.7497 26.9225 48.22 25.961C48.6902 24.9995 49.11 24.1925 49.4795 23.54C49.5803 23.3683 49.681 23.3168 49.7818 23.3855C49.8825 23.4198 49.8993 23.5228 49.8322 23.6945C49.1604 25.1368 48.4215 26.6134 47.6154 28.1244C46.8093 29.6354 45.7849 30.8373 44.5422 31.7301C44.1055 32.0392 43.6353 32.2967 43.1315 32.5028C42.6613 32.7088 42.1575 32.8118 41.6201 32.8118Z" fill="#D95C3E"/>
<path d="M3.87933 33.7391C1.29311 33.7391 0 33.0008 0 31.5242C0 29.8759 1.07479 29.0517 3.22438 29.0517C4.232 29.0517 6.63349 29.6526 10.4289 30.8545C11.3357 30.0647 12.2258 29.1032 13.099 27.97C14.0059 26.8024 14.8624 25.4288 15.6685 23.8492C16.3402 22.5443 16.9784 21.2222 17.583 19.8829C18.1875 18.5093 18.8089 17.1529 19.447 15.8136C22.302 9.80411 25.5767 5.5116 29.2713 2.9361C28.2301 2.62704 27.0378 2.38666 25.6943 2.21496C24.3844 2.04326 22.9401 1.95741 21.3615 1.95741C19.615 1.95741 17.9692 2.11194 16.4242 2.421C14.8792 2.69572 13.4181 3.12498 12.041 3.70876C8.78308 5.04802 6.36479 7.05691 4.78619 9.73543C3.81216 11.4181 3.32514 13.0836 3.32514 14.7319C3.32514 16.4832 3.86254 17.9427 4.93733 19.1103C6.01213 20.3122 7.406 20.9131 9.11895 20.9131C11.0334 20.9131 12.7296 20.2091 14.2074 18.8012C15.6853 17.3589 16.4242 15.6763 16.4242 13.7532C16.4242 12.4139 16.0715 11.3151 15.3662 10.4566C14.6273 9.56373 13.6029 9.11731 12.2929 9.11731C11.3189 9.11731 10.4457 9.42637 9.67314 10.0445C8.90063 10.7313 8.51438 11.5898 8.51438 12.62C8.51438 13.4441 8.95101 13.8562 9.82428 13.8562C9.89146 13.8562 9.94184 13.8047 9.97543 13.7017C10.0762 13.5987 10.1602 13.5472 10.2273 13.5472C10.2945 13.5815 10.3281 13.633 10.3281 13.7017C10.3281 14.0451 10.1434 14.2168 9.7739 14.2168C8.63193 14.2168 8.06095 13.6674 8.06095 12.5685C8.06095 11.4696 8.54797 10.5081 9.522 9.68392C10.4624 8.8941 11.4701 8.49919 12.5449 8.49919C13.9891 8.49919 15.1647 8.97995 16.0715 9.94147C17.012 10.903 17.4822 12.1221 17.4822 13.5987C17.4822 15.8651 16.6089 17.771 14.8624 19.3163C13.2166 20.7586 11.2685 21.4797 9.01819 21.4797C6.90219 21.4797 5.17244 20.8444 3.82895 19.5738C2.3847 18.2002 1.66257 16.5004 1.66257 14.4744C1.66257 13.0321 2.01524 11.6241 2.72057 10.2505C4.26559 7.12559 6.98616 4.79046 10.8823 3.24517C14.0731 1.97458 17.7005 1.33929 21.7646 1.33929C24.9554 1.33929 27.7599 1.68269 30.1782 2.36949C31.253 1.75137 32.2774 1.28778 33.2514 0.978723C34.2255 0.635323 35.1827 0.463623 36.1231 0.463623C36.3918 0.463623 36.5262 0.497963 36.5262 0.566642C36.5262 0.669662 36.4758 0.721173 36.375 0.721173C36.2407 0.721173 36.056 0.738343 35.8209 0.772682C35.6193 0.772682 35.3842 0.789853 35.1155 0.824195C33.6377 0.961553 32.1934 1.54533 30.7828 2.57553C34.3094 3.74309 36.0728 5.71765 36.0728 8.49919C36.0728 8.80825 36.0392 9.11731 35.972 9.42637C35.9384 9.70109 35.888 9.97581 35.8209 10.2505C35.4178 12.0019 33.8056 13.427 30.9843 14.5259C28.969 15.247 26.7019 15.7106 24.1829 15.9166H25.7447C31.6896 15.9166 34.6621 17.9942 34.6621 22.1493C34.6621 24.5188 33.772 26.6135 31.9919 28.4336C30.4469 30.0132 28.4652 31.1979 26.0469 31.9878C25.0729 32.3312 24.0485 32.5715 22.9737 32.7089C21.8989 32.8806 20.7905 32.9665 19.6486 32.9665C18.2715 32.9665 16.844 32.8463 15.3662 32.6059C13.9219 32.3655 12.4441 31.9878 10.9327 31.4727C8.24568 32.9836 5.89457 33.7391 3.87933 33.7391ZM21.9661 15.7621C29.0866 15.0753 32.9659 13.2209 33.6041 10.199C33.7384 9.54656 33.8056 8.8941 33.8056 8.24164C33.8056 5.83784 32.5461 4.15518 30.027 3.19366C27.105 5.70048 24.418 9.88996 21.9661 15.7621ZM17.8349 32.2453C21.2943 32.2453 24.3676 31.404 27.0546 29.7213C30.3125 27.7639 31.9415 25.1713 31.9415 21.9433C31.9415 18.0629 29.1706 16.1227 23.6287 16.1227C23.2928 16.1227 22.9737 16.1398 22.6714 16.1742C22.3691 16.1742 22.0836 16.1914 21.8149 16.2257C20.1692 20.1748 18.8593 22.9735 17.8852 24.6218C16.2059 27.369 14.0563 29.5496 11.4365 31.1636C13.754 31.8847 15.8868 32.2453 17.8349 32.2453ZM4.232 33.327C6.24724 33.327 8.17851 32.6231 10.0258 31.2151C8.58155 30.7 7.30524 30.3223 6.19685 30.0819C5.12206 29.8415 4.24879 29.7213 3.57705 29.7213C1.52822 29.7213 0.503809 30.3394 0.503809 31.5757C0.503809 32.7432 1.74654 33.327 4.232 33.327Z" fill="#147334"/>
</svg>
