<svg width="136" height="88" viewBox="0 0 136 88" fill="none" xmlns="http://www.w3.org/2000/svg">
<g filter="url(#filter0_d_2002_155)">
<rect x="25" y="10" width="96" height="48" fill="#4C6951"/>
<path fill-rule="evenodd" clip-rule="evenodd" d="M73 58C99.5097 58 121 47.2548 121 34C121 20.7452 99.5097 10 73 10C46.4903 10 25 20.7452 25 34C25 47.2548 46.4903 58 73 58ZM73 58C59.7452 58 49 47.2548 49 34C49 20.7452 59.7452 10 73 10C86.2548 10 97 20.7452 97 34C97 47.2548 86.2548 58 73 58Z" fill="#F6F5D9"/>
<path d="M39.853 23.7285H44.3647C45.7899 23.7285 46.8677 23.8395 47.5981 24.0615C48.3358 24.2835 48.9302 24.7347 49.3813 25.415C49.8325 26.0882 50.0581 27.1768 50.0581 28.6807C50.0581 29.6976 49.897 30.4066 49.5747 30.8076C49.2596 31.2087 48.633 31.5166 47.6948 31.7314C48.7404 31.9678 49.4494 32.3617 49.8218 32.9131C50.1942 33.4574 50.3804 34.2952 50.3804 35.4268V37.0381C50.3804 38.2126 50.2443 39.0827 49.9722 39.6484C49.7072 40.2142 49.2811 40.6009 48.6938 40.8086C48.1066 41.0163 46.9035 41.1201 45.0845 41.1201H39.853V23.7285ZM44.3755 26.7041V30.5713C44.5688 30.5641 44.7192 30.5605 44.8267 30.5605C45.2707 30.5605 45.5535 30.4531 45.6753 30.2383C45.797 30.0163 45.8579 29.3896 45.8579 28.3584C45.8579 27.8141 45.8078 27.4346 45.7075 27.2197C45.6073 26.9977 45.4748 26.8581 45.3101 26.8008C45.1525 26.7435 44.841 26.7113 44.3755 26.7041ZM44.3755 33.2783V38.1445C45.0129 38.123 45.4175 38.0228 45.5894 37.8438C45.7684 37.6647 45.8579 37.2243 45.8579 36.5225V34.9004C45.8579 34.1556 45.7791 33.7044 45.6216 33.5469C45.464 33.3893 45.0487 33.2998 44.3755 33.2783ZM56.353 23.7285V25.9951H51.8843V23.7285H56.353ZM56.353 26.8652V41.1201H51.8843V26.8652H56.353ZM66.7837 31.4199H62.938V30.6465C62.938 29.9876 62.8986 29.5723 62.8198 29.4004C62.7482 29.2214 62.562 29.1318 62.2612 29.1318C62.0177 29.1318 61.8351 29.2142 61.7134 29.3789C61.5916 29.5365 61.5308 29.7764 61.5308 30.0986C61.5308 30.5355 61.5594 30.8577 61.6167 31.0654C61.6812 31.266 61.8638 31.488 62.1646 31.7314C62.4725 31.9749 63.0991 32.3294 64.0444 32.7949C65.3049 33.4108 66.132 33.9909 66.5259 34.5352C66.9198 35.0794 67.1167 35.8708 67.1167 36.9092C67.1167 38.0693 66.9663 38.9466 66.6655 39.541C66.3647 40.1283 65.8599 40.583 65.1509 40.9053C64.4491 41.2204 63.6004 41.3779 62.605 41.3779C61.5021 41.3779 60.5568 41.2061 59.769 40.8623C58.9884 40.5186 58.4513 40.0531 58.1577 39.4658C57.8641 38.8786 57.7173 37.9906 57.7173 36.8018V36.1143H61.563V37.0166C61.563 37.7829 61.6095 38.2806 61.7026 38.5098C61.8029 38.7389 61.9963 38.8535 62.2827 38.8535C62.5907 38.8535 62.8055 38.7783 62.9272 38.6279C63.049 38.4704 63.1099 38.1445 63.1099 37.6504C63.1099 36.9701 63.0311 36.5439 62.8735 36.3721C62.7088 36.2002 61.8674 35.6917 60.3491 34.8467C59.0744 34.1305 58.2974 33.4824 58.0181 32.9023C57.7388 32.3151 57.5991 31.6204 57.5991 30.8184C57.5991 29.6797 57.7495 28.8418 58.0503 28.3047C58.3511 27.7604 58.8595 27.3415 59.5757 27.0479C60.299 26.7542 61.1369 26.6074 62.0894 26.6074C63.0347 26.6074 63.8368 26.7292 64.4956 26.9727C65.1616 27.209 65.6701 27.5241 66.021 27.918C66.3791 28.3118 66.5939 28.6771 66.6655 29.0137C66.7443 29.3503 66.7837 29.8766 66.7837 30.5928V31.4199ZM72.563 26.8652L72.4878 28.2188C72.8244 27.6816 73.2254 27.2806 73.6909 27.0156C74.1564 26.7435 74.6864 26.6074 75.2808 26.6074C76.4409 26.6074 77.354 27.1445 78.02 28.2188C78.3853 27.6816 78.797 27.2806 79.2554 27.0156C79.7137 26.7435 80.2222 26.6074 80.7808 26.6074C81.5184 26.6074 82.1271 26.7865 82.6069 27.1445C83.0939 27.5026 83.4054 27.943 83.5415 28.4658C83.6776 28.9814 83.7456 29.8229 83.7456 30.9902V41.1201H79.5347V31.8281C79.5347 30.6107 79.4917 29.8587 79.4058 29.5723C79.327 29.2786 79.1372 29.1318 78.8364 29.1318C78.5285 29.1318 78.328 29.2751 78.2349 29.5615C78.1489 29.848 78.106 30.6035 78.106 31.8281V41.1201H73.895V32.0645C73.895 30.668 73.8592 29.8301 73.7876 29.5508C73.7231 29.2715 73.5369 29.1318 73.229 29.1318C73.0356 29.1318 72.8709 29.207 72.7349 29.3574C72.5988 29.5007 72.5236 29.6797 72.5093 29.8945C72.495 30.1022 72.4878 30.5498 72.4878 31.2373V41.1201H68.2769V26.8652H72.563ZM89.1274 32.3867H85.0562V31.4307C85.0562 30.3278 85.1815 29.4792 85.4321 28.8848C85.6899 28.2832 86.202 27.7533 86.9683 27.2949C87.7345 26.8366 88.73 26.6074 89.9546 26.6074C91.4227 26.6074 92.5291 26.8688 93.2739 27.3916C94.0187 27.9072 94.4663 28.5446 94.6167 29.3037C94.7671 30.0557 94.8423 31.6097 94.8423 33.9658V41.1201H90.6206V39.8525C90.3556 40.361 90.0119 40.7441 89.5894 41.002C89.174 41.2526 88.6763 41.3779 88.0962 41.3779C87.3371 41.3779 86.6388 41.1667 86.0015 40.7441C85.3713 40.3145 85.0562 39.3799 85.0562 37.9404V36.7695C85.0562 35.7025 85.2244 34.9756 85.561 34.5889C85.8976 34.2021 86.7319 33.751 88.064 33.2354C89.4891 32.6768 90.2518 32.3008 90.3521 32.1074C90.4523 31.9141 90.5024 31.5202 90.5024 30.9258C90.5024 30.181 90.4451 29.6976 90.3306 29.4756C90.2231 29.2464 90.0405 29.1318 89.7827 29.1318C89.4891 29.1318 89.3065 29.2285 89.2349 29.4219C89.1632 29.6081 89.1274 30.0986 89.1274 30.8936V32.3867ZM90.5024 34.3418C89.8078 34.8503 89.4032 35.2764 89.2886 35.6201C89.1812 35.9639 89.1274 36.458 89.1274 37.1025C89.1274 37.8402 89.174 38.3164 89.2671 38.5312C89.3674 38.7461 89.5607 38.8535 89.8472 38.8535C90.1193 38.8535 90.2948 38.7712 90.3735 38.6064C90.4595 38.4346 90.5024 37.9906 90.5024 37.2744V34.3418ZM105.681 26.8652L103.919 32.5479L106.208 41.1201H102.029L100.675 34.9111V41.1201H96.3354V23.7285H100.675V31.0332L102.029 26.8652H105.681Z" fill="#D95C3E"/>
</g>
<defs>
<filter id="filter0_d_2002_155" x="0" y="0" width="136" height="88" filterUnits="userSpaceOnUse" color-interpolation-filters="sRGB">
<feFlood flood-opacity="0" result="BackgroundImageFix"/>
<feColorMatrix in="SourceAlpha" type="matrix" values="0 0 0 0 0 0 0 0 0 0 0 0 0 0 0 0 0 0 127 0" result="hardAlpha"/>
<feOffset dx="-5" dy="10"/>
<feGaussianBlur stdDeviation="10"/>
<feComposite in2="hardAlpha" operator="out"/>
<feColorMatrix type="matrix" values="0 0 0 0 0 0 0 0 0 0 0 0 0 0 0 0 0 0 0.25 0"/>
<feBlend mode="normal" in2="BackgroundImageFix" result="effect1_dropShadow_2002_155"/>
<feBlend mode="normal" in="SourceGraphic" in2="effect1_dropShadow_2002_155" result="shape"/>
</filter>
</defs>
</svg>
